<?xml version="1.0" standalone="no"?>
<!DOCTYPE svg PUBLIC "-//W3C//DTD SVG 20010904//EN"
 "http://www.w3.org/TR/2001/REC-SVG-20010904/DTD/svg10.dtd">
<svg version="1.0" xmlns="http://www.w3.org/2000/svg"
 width="500.000000pt" height="500.000000pt" viewBox="0 0 500.000000 500.000000"
 preserveAspectRatio="xMidYMid meet">

<g transform="translate(0.000000,500.000000) scale(0.100000,-0.100000)"
fill="#000000" stroke="none">
<path d="M3108 3990 c-77 -51 -146 -135 -240 -293 -19 -33 -45 -56 -95 -85
-37 -22 -96 -69 -129 -104 -59 -61 -137 -170 -149 -208 -4 -13 -20 -20 -58
-25 -77 -11 -271 -69 -357 -107 -216 -96 -346 -182 -480 -318 -102 -103 -177
-209 -235 -333 -42 -90 -95 -236 -95 -263 0 -28 -24 -25 -76 11 -66 46 -106
90 -138 153 -81 161 -79 336 8 636 31 107 33 173 6 226 -55 108 -175 101 -254
-13 -51 -74 -101 -205 -127 -332 -19 -95 -21 -129 -16 -260 7 -176 28 -272 86
-390 68 -136 160 -231 307 -315 42 -24 102 -53 135 -65 l60 -21 24 -69 c14
-38 38 -88 55 -111 16 -23 30 -47 30 -52 0 -5 -29 -69 -64 -143 -35 -74 -72
-159 -81 -189 -23 -78 -31 -207 -15 -256 33 -104 115 -174 206 -174 101 0 143
31 175 129 26 79 47 123 91 188 l33 48 5 -100 c7 -127 30 -173 105 -214 50
-27 140 -29 171 -3 12 9 47 69 77 132 54 112 124 216 184 273 23 22 44 30 87
34 55 6 59 4 86 -25 19 -21 47 -36 86 -47 110 -30 106 -26 98 -98 -4 -34 -7
-63 -8 -63 0 -1 -78 -7 -171 -13 -94 -6 -193 -18 -221 -26 -77 -23 -114 -73
-114 -157 0 -29 -6 -45 -21 -57 -15 -12 -23 -32 -27 -69 l-5 -52 -61 0 c-475
1 -1136 -7 -1142 -13 -4 -4 -2 -13 5 -20 16 -16 632 -23 2048 -22 1105 0 1146
1 1082 36 -17 9 -98 14 -268 17 l-243 5 6 44 c5 40 3 48 -24 74 -27 27 -30 36
-28 89 1 39 -4 66 -15 83 -32 49 -213 87 -417 87 -70 0 -130 4 -135 9 -6 6 -8
35 -7 66 l4 56 56 25 c32 14 69 37 84 51 25 24 39 27 130 34 176 12 241 51
274 165 19 67 14 126 -15 165 l-21 28 20 53 c12 29 34 102 50 163 l28 109 82
12 c85 12 124 32 165 83 60 74 156 230 184 298 l31 79 82 12 c48 8 105 25 140
43 l58 29 60 -30 c47 -23 60 -27 60 -15 0 8 -18 27 -40 41 -33 22 -38 29 -29
45 5 11 20 26 33 34 20 14 27 14 59 0 43 -18 47 -18 47 -5 0 5 -15 20 -34 32
l-33 23 29 74 c72 180 59 364 -39 539 l-35 64 7 104 c13 186 -9 256 -87 273
-48 11 -137 -19 -229 -77 -36 -23 -73 -42 -81 -42 -8 0 -48 14 -88 30 -77 32
-243 70 -303 70 -83 0 -94 7 -159 102 -68 99 -89 117 -145 125 -31 4 -47 -1
-85 -27z m192 -161 c49 -81 56 -89 84 -89 89 0 305 -46 444 -95 88 -31 92 -31
127 -1 49 42 173 108 214 113 61 8 67 -10 63 -198 l-3 -156 40 -79 c62 -126
79 -221 62 -346 -9 -68 -38 -163 -59 -196 -7 -10 -25 -9 -91 3 -63 12 -86 13
-97 4 -21 -18 -7 -29 39 -30 23 0 59 -6 80 -12 l38 -12 -29 -28 -29 -28 -52
21 c-96 37 -144 17 -51 -22 28 -11 50 -25 50 -30 0 -5 -21 -19 -47 -31 -41
-18 -66 -22 -173 -22 l-125 0 -95 42 c-142 63 -193 73 -357 73 -169 0 -199
-10 -262 -90 -89 -113 -181 -315 -181 -398 0 -44 4 -54 31 -76 17 -14 37 -26
45 -26 8 0 14 -5 14 -11 0 -9 -71 -282 -86 -331 -4 -14 -17 -18 -58 -18 l-52
0 -13 66 c-10 48 -13 138 -10 327 4 255 3 262 -16 262 -31 0 -42 -64 -50 -296
-6 -195 -5 -223 14 -313 35 -164 26 -212 -45 -242 -102 -43 -192 18 -249 170
-59 156 -97 348 -108 534 -2 34 -9 68 -16 75 -55 55 -34 -284 33 -535 13 -48
21 -89 18 -92 -3 -4 -16 -6 -28 -6 -15 0 -51 -25 -96 -66 -127 -114 -236 -174
-343 -189 -45 -6 -57 -14 -117 -76 -108 -111 -181 -230 -209 -342 -6 -27 -24
-61 -42 -80 l-31 -32 -6 24 c-7 31 -26 38 -35 13 -6 -20 -48 -37 -65 -27 -5 3
-5 16 2 31 17 37 -3 53 -32 24 l-23 -23 -18 24 c-52 67 -61 203 -20 320 27 76
95 221 125 266 37 54 34 92 -13 154 -42 56 -58 112 -71 254 -9 99 11 259 46
363 13 40 21 78 18 84 -4 6 -2 8 4 4 6 -4 25 23 47 66 52 101 164 250 254 335
68 65 102 91 221 169 99 65 348 168 468 194 26 6 54 13 62 15 13 4 15 -11 12
-108 -3 -88 1 -125 15 -172 18 -56 21 -60 52 -63 29 -3 33 -1 26 15 -80 189
-23 413 150 588 52 52 100 90 138 109 48 23 65 39 94 85 97 155 194 271 244
290 33 12 63 -18 129 -130z m-2288 -570 c27 -35 26 -123 -1 -184 -11 -25 -32
-94 -47 -153 -79 -311 6 -577 233 -728 l53 -35 0 -100 c0 -85 -2 -99 -16 -99
-30 0 -205 102 -271 158 -77 65 -153 175 -182 265 -70 214 -70 441 1 657 38
116 56 153 103 208 33 38 42 43 73 40 24 -2 41 -11 54 -29z m2103 -1203 c-4
-17 -15 -60 -25 -96 -10 -36 -24 -90 -31 -120 -15 -65 -30 -80 -80 -80 l-38 0
15 42 c8 24 24 79 35 123 11 44 26 100 35 125 14 45 14 45 55 42 39 -4 40 -5
34 -36z m213 28 c45 -4 82 -8 82 -10 0 -5 -34 -134 -62 -238 l-21 -78 -45 6
c-25 3 -80 6 -124 6 -72 0 -78 2 -70 18 8 15 51 158 81 269 11 40 13 42 44 38
17 -3 69 -8 115 -11z m-1233 -694 c61 -7 112 -14 114 -16 2 -2 -22 -33 -53
-69 -59 -70 -97 -138 -135 -242 -13 -33 -33 -71 -47 -84 l-23 -22 -19 24 -19
23 -7 -22 c-15 -46 -85 -9 -117 62 -24 52 -25 167 -3 233 18 54 59 112 86 122
24 9 90 6 223 -9z m821 -23 c18 -18 -63 -32 -200 -35 -124 -3 -157 -1 -195 14
-32 12 -40 19 -28 23 22 8 415 6 423 -2z m-131 -108 c5 -5 10 -37 12 -71 1
-34 7 -66 13 -72 7 -7 85 -14 193 -18 190 -6 306 -25 338 -54 14 -12 19 -31
19 -66 l0 -48 -55 0 c-47 0 -55 3 -55 18 0 11 -8 27 -19 36 -16 15 -55 17
-302 22 -156 3 -358 2 -448 -4 l-164 -9 -30 -33 c-25 -29 -35 -32 -84 -34
l-55 -1 5 39 c4 25 16 49 34 67 24 24 41 30 113 38 47 6 145 13 218 15 73 3
137 8 143 11 5 4 9 44 9 90 0 79 1 84 23 88 28 6 79 -2 92 -14z m409 -319 c6
-6 4 -25 -4 -49 -7 -22 -10 -58 -7 -80 l5 -41 -424 0 -424 1 0 35 c0 20 -8 52
-17 71 -16 34 -16 36 2 49 10 8 35 15 54 15 20 1 97 5 171 9 167 10 632 2 644
-10z"/>
<path d="M3336 3078 c-40 -62 -23 -118 34 -118 35 0 54 23 54 65 0 63 -59 98
-88 53z"/>
<path d="M4007 3025 c-13 -14 -31 -39 -38 -56 -17 -42 -2 -64 42 -64 32 0 34
2 43 46 9 47 2 99 -13 99 -4 0 -20 -11 -34 -25z"/>
<path d="M3642 2938 c-18 -18 -15 -36 12 -63 l23 -23 -43 -43 c-24 -24 -44
-47 -44 -51 0 -16 23 -7 60 22 l37 29 16 -39 c12 -32 20 -40 41 -40 30 0 30
-1 11 36 -21 41 -19 87 5 109 25 23 26 51 1 65 -27 14 -104 13 -119 -2z"/>
</g>
</svg>
